<svg width="25" height="24" viewBox="0 0 25 24" fill="none" xmlns="http://www.w3.org/2000/svg">
<g id="ep:right">
<rect x="0.575012" width="24" height="24" rx="12" fill="#0DBA4B"/>
<path id="Vector" d="M18.2645 11.25H4.32501C4.1261 11.25 3.93533 11.329 3.79468 11.4696C3.65403 11.6103 3.57501 11.8011 3.57501 12C3.57501 12.1989 3.65403 12.3896 3.79468 12.5303C3.93533 12.671 4.1261 12.75 4.32501 12.75H18.2645L12.794 18.219C12.6532 18.3598 12.5741 18.5508 12.5741 18.75C12.5741 18.9491 12.6532 19.1401 12.794 19.281C12.9348 19.4218 13.1258 19.5009 13.325 19.5009C13.5242 19.5009 13.7152 19.4218 13.856 19.281L20.606 12.531C20.6759 12.4613 20.7313 12.3785 20.7691 12.2874C20.8069 12.1963 20.8264 12.0986 20.8264 12C20.8264 11.9013 20.8069 11.8036 20.7691 11.7125C20.7313 11.6214 20.6759 11.5386 20.606 11.469L13.856 4.71897C13.7152 4.57814 13.5242 4.49902 13.325 4.49902C13.1258 4.49902 12.9348 4.57814 12.794 4.71897C12.6532 4.8598 12.5741 5.05081 12.5741 5.24997C12.5741 5.44913 12.6532 5.64014 12.794 5.78097L18.2645 11.25Z" fill="white"/>
</g>
</svg>
